<svg width="280" height="46" viewBox="0 0 280 46" fill="none" xmlns="http://www.w3.org/2000/svg">
<path d="M104.886 17.2908C107.007 13.2128 109.78 11.2554 113.205 11.2554V21.532C107.007 21.532 104.886 23.4894 104.886 26.5887V35.8866H97.709V11.5816H104.886V17.2908Z" fill="#0074E5"/>
<path d="M181.063 13.376C179.595 11.7448 177.638 11.0923 175.354 11.0923C172.092 11.0923 169.318 12.7235 167.524 16.149C167.035 14.5178 166.056 13.376 164.751 12.3972C163.446 11.4185 161.978 11.0923 160.184 11.0923C157.084 11.0923 154.638 12.7235 152.843 16.149V11.5816H145.666V35.8866H152.843V22.5107C152.843 21.6951 153.006 21.2058 153.17 20.8795C153.333 20.3902 153.659 20.0639 153.985 19.7377C154.801 19.0852 155.616 18.7589 156.921 18.7589C158.063 18.7589 159.042 19.0852 159.857 19.7377C160.673 20.3901 160.999 21.532 160.999 22.5107V36.0497H168.177V22.6738V22.5107V22.3476C168.177 21.8582 168.34 21.3689 168.503 21.0426C168.666 20.5533 168.992 20.227 169.318 19.9008C170.134 19.2483 170.95 18.9221 172.092 18.9221C173.233 18.9221 174.212 19.2483 174.865 19.9008C175.68 20.5533 176.006 21.3689 176.006 22.3476V22.5107V36.0497H183.184V19.7377C183.184 16.9646 182.368 15.0072 181.063 13.376Z" fill="#0074E5"/>
<path d="M236.525 13.3758C234.894 11.7446 232.773 10.929 230.163 10.929C226.575 10.929 223.802 12.7233 221.844 16.1488V11.4183H214.667V35.7233H221.844V22.8367C221.844 22.1843 222.007 21.5318 222.171 21.2055C222.334 20.7162 222.823 20.2268 223.312 19.7375C224.291 18.9219 225.433 18.4325 226.901 18.4325C228.369 18.4325 229.511 18.9219 230.49 19.7375C231.468 20.5531 231.958 21.6949 231.958 22.8367V35.7233H239.135V19.5743C238.972 17.1275 238.156 15.007 236.525 13.3758Z" fill="#0074E5"/>
<path d="M259.035 35.8867L252.347 27.0781L249.9 26.915V35.8867H242.723V1.63135H249.9V17.9434H250.879L257.24 11.5817H268.169L257.893 21.6952L268.333 35.8867H259.035Z" fill="#0074E5"/>
<path d="M277.794 8.15603C276.652 9.13475 275.347 9.461 273.879 9.461C272.248 9.461 270.943 8.97163 269.964 8.15603C268.822 7.1773 268.333 6.03546 268.333 4.7305C268.333 3.42553 268.822 2.28369 269.964 1.30497C270.943 0.326246 272.411 0 273.879 0C275.51 0 276.815 0.489367 277.794 1.30497C278.773 2.28369 279.425 3.42553 279.425 4.7305C279.425 6.03546 278.936 7.1773 277.794 8.15603Z" fill="#0074E5"/>
<path d="M277.467 11.5815H270.29V35.8865H277.467V11.5815Z" fill="#0074E5"/>
<path d="M134.248 11.5814V15.3332C132.454 12.397 129.844 10.929 126.582 10.929C123.319 10.929 120.546 12.0708 118.425 14.5176C116.305 16.9644 115.163 19.9006 115.163 23.6524C115.163 27.241 116.305 30.3403 118.425 32.7871C120.546 35.2339 123.319 36.3758 126.582 36.3758C129.844 36.3758 132.454 34.9077 134.248 31.9715V35.7233H141.426V11.4183H134.248V11.5814ZM134.248 23.8155C134.248 25.2836 133.759 26.4254 132.617 27.4041C131.475 28.3829 130.17 28.8722 128.539 28.8722C126.908 28.8722 125.44 28.3829 124.461 27.4041C123.319 26.4254 122.83 25.2836 122.83 23.8155C122.83 22.3474 123.319 21.2055 124.461 20.2268C125.603 19.2481 126.908 18.7587 128.702 18.7587C130.333 18.7587 131.801 19.2481 132.943 20.2268C133.596 21.2055 134.248 22.3474 134.248 23.8155Z" fill="#0074E5"/>
<path d="M208.305 14.6809C205.695 12.2341 202.595 11.0923 198.844 11.0923C195.092 11.0923 191.829 12.2341 189.383 14.6809C186.773 17.1277 185.631 20.0639 185.631 23.8157C185.631 27.4043 186.936 30.5036 189.383 32.9504C191.993 35.3972 195.092 36.5391 198.844 36.5391C202.595 36.5391 205.858 35.3972 208.305 32.9504C210.751 30.5036 212.056 27.5675 212.056 23.8157C212.056 20.227 210.751 17.1277 208.305 14.6809ZM202.922 27.4043C201.78 28.3831 200.475 28.8724 198.844 28.8724C197.212 28.8724 195.744 28.3831 194.766 27.4043C193.624 26.4256 193.134 25.2838 193.134 23.8157C193.134 22.3476 193.624 21.2058 194.766 20.227C195.907 19.2483 197.212 18.7589 199.007 18.7589C200.638 18.7589 202.106 19.2483 203.248 20.227C204.39 21.2058 204.879 22.3476 204.879 23.8157C204.716 25.2838 204.063 26.4256 202.922 27.4043Z" fill="#0074E5"/>
<path d="M45.0213 23.4892C45.0213 21.3686 39.4752 19.5743 32.2979 19.4111C37.1915 14.1913 39.9645 8.97142 38.4965 7.50334C37.0284 6.03525 31.8085 8.80831 26.5887 13.7019C26.2624 6.52462 24.6312 0.978516 22.5107 0.978516C20.3901 0.978516 18.5958 6.52462 18.4326 13.7019C13.2128 8.80831 7.99291 6.03525 6.52482 7.50334C5.05674 8.97142 7.82982 14.1913 12.7234 19.4111C5.54613 19.7374 0 21.3686 0 23.4892C0 25.6097 5.54613 27.404 12.7234 27.5672C7.82982 32.787 5.05674 38.0069 6.52482 39.475C7.99291 40.9431 13.2128 38.17 18.4326 33.2764C18.7589 40.4537 20.3901 45.9998 22.5107 45.9998C24.6312 45.9998 26.4256 40.4537 26.5887 33.2764C31.8085 38.17 37.0284 40.9431 38.4965 39.475C39.9645 38.0069 37.1915 32.787 32.2979 27.5672C39.4752 27.404 45.0213 25.6097 45.0213 23.4892Z" fill="#0074E5"/>
<path d="M90.3689 23.4892C90.3689 21.3686 84.8228 19.5743 77.6455 19.4111C82.5391 14.1913 85.3121 8.97142 83.8441 7.50334C82.376 6.03525 77.1561 8.80831 71.9363 13.7019C71.61 6.52462 69.9788 0.978516 67.8583 0.978516C65.7377 0.978516 63.9434 6.52462 63.7803 13.7019C58.5604 8.80831 53.3406 6.03525 51.8725 7.50334C50.4044 8.97142 53.1774 14.1913 58.071 19.4111C50.8937 19.7374 45.3477 21.3686 45.3477 23.4892C45.3477 25.6097 50.8937 27.404 58.071 27.5672C53.1774 32.787 50.4044 38.0069 51.8725 39.475C53.3406 40.9431 58.5604 38.17 63.7803 33.2764C64.1065 40.4537 65.7377 45.9998 67.8583 45.9998C69.9788 45.9998 71.7732 40.4537 71.9363 33.2764C77.1561 38.17 82.376 40.9431 83.8441 39.475C85.3121 38.0069 82.5391 32.787 77.6455 27.5672C84.8228 27.404 90.3689 25.6097 90.3689 23.4892Z" fill="#0074E5"/>
<path d="M26.4259 26.9148C25.284 27.8935 23.9791 28.2198 22.511 28.2198C20.8798 28.2198 19.5748 27.7304 18.596 26.9148C17.4542 25.9361 16.9648 24.7943 16.9648 23.4893C16.9648 22.1843 17.4542 21.0425 18.596 20.0638C19.5748 19.085 21.0429 18.7588 22.511 18.7588C24.1422 18.7588 25.4471 19.2482 26.4259 20.0638C27.4046 21.0425 28.0571 22.1843 28.0571 23.4893C28.0571 24.7943 27.4046 25.9361 26.4259 26.9148Z" fill="white"/>
<path d="M71.6104 26.9148C70.4685 27.8935 69.1636 28.2198 67.6955 28.2198C66.0643 28.2198 64.7593 27.7304 63.7806 26.9148C62.6388 25.9361 62.1494 24.7943 62.1494 23.4893C62.1494 22.1843 62.6388 21.0425 63.7806 20.0638C64.7593 19.085 66.2274 18.7588 67.6955 18.7588C69.3267 18.7588 70.6317 19.2482 71.6104 20.0638C72.5891 21.0425 73.2416 22.1843 73.2416 23.4893C73.2416 24.7943 72.7522 25.9361 71.6104 26.9148Z" fill="#FFD600"/>
</svg>
